<svg width="72" height="72" viewBox="0 0 72 72" fill="none" xmlns="http://www.w3.org/2000/svg">
<path fill-rule="evenodd" clip-rule="evenodd" d="M36 12C22.7341 12 12 22.735 12 36C12 49.2659 22.735 60 36 60C49.2659 60 60 49.265 60 36C60 22.7341 49.2649 12 36 12ZM36 56.25C24.8069 56.25 15.75 47.1923 15.75 36C15.75 24.8069 24.8077 15.75 36 15.75C47.1931 15.75 56.25 24.8077 56.25 36C56.25 47.1931 47.1922 56.25 36 56.25ZM36 32.0934C34.9644 32.0934 34.125 32.9329 34.125 33.9684V46.0428C34.125 47.0784 34.9644 47.9178 36 47.9178C37.0356 47.9178 37.875 47.0783 37.875 46.0427V33.9684C37.875 32.9329 37.0356 32.0934 36 32.0934ZM38.5312 27.2662C38.5312 28.6642 37.398 29.7975 36 29.7975C34.602 29.7975 33.4688 28.6642 33.4688 27.2662C33.4688 25.8683 34.602 24.735 36 24.735C37.398 24.735 38.5312 25.8683 38.5312 27.2662Z" fill="#F5C249"/>
</svg>
