<svg width="72" height="72" viewBox="0 0 72 72" fill="none" xmlns="http://www.w3.org/2000/svg">
<path fill-rule="evenodd" clip-rule="evenodd" d="M24 20.5612C20.1864 20.5612 16.996 23.2296 16.1942 26.8012H55.8058C55.004 23.2296 51.8136 20.5612 48 20.5612H24ZM12 28.5612V28.8012V43.4612C12 50.0886 17.3726 55.4612 24 55.4612H48C54.6274 55.4612 60 50.0886 60 43.4612V28.8012V28.5612C60 21.9337 54.6274 16.5612 48 16.5612H24C17.3726 16.5612 12 21.9337 12 28.5612ZM56 43.4612V30.8012H16V43.4612C16 47.8794 19.5817 51.4612 24 51.4612H48C52.4183 51.4612 56 47.8794 56 43.4612ZM40.46 41.5013C39.3554 41.5013 38.46 42.3967 38.46 43.5013C38.46 44.6058 39.3554 45.5013 40.46 45.5013H48.04C49.1445 45.5013 50.04 44.6058 50.04 43.5013C50.04 42.3967 49.1445 41.5013 48.04 41.5013H40.46Z" fill="#F5C249"/>
</svg>
