<svg width="72" height="72" viewBox="0 0 72 72" fill="none" xmlns="http://www.w3.org/2000/svg">
<path d="M54.344 19.7724L35.969 12.1433C35.5087 11.9523 34.9912 11.9522 34.531 12.1433L16.156 19.7724C15.4562 20.0631 15 20.7463 15 21.5041V30.7783C15 43.5483 22.7183 55.0352 34.5414 59.861C34.9956 60.0463 35.5043 60.0463 35.9586 59.861C47.7815 55.0353 55.5 43.5484 55.5 30.7783V21.5041C55.5 20.7463 55.0439 20.0631 54.344 19.7724ZM51.75 30.7783C51.75 41.6341 45.375 51.6276 35.25 56.0884C25.3956 51.7467 18.75 41.9283 18.75 30.7783V22.7558L35.25 15.9051L51.75 22.7558V30.7783ZM33.1776 37.0984L41.2367 29.0393C41.9689 28.3071 43.156 28.3071 43.8883 29.0393C44.6206 29.7716 44.6205 30.9588 43.8882 31.691L34.5034 41.0758C33.771 41.8082 32.5838 41.8079 31.8517 41.0758L26.6117 35.8357C25.8794 35.1035 25.8794 33.9163 26.6117 33.1841C27.344 32.4519 28.5311 32.4518 29.2633 33.1841L33.1776 37.0984Z" fill="#F5C249"/>
</svg>
